<svg id="Layer_1" data-name="Layer 1" xmlns="http://www.w3.org/2000/svg" viewBox="0 0 1237.87 581.19"><defs><style>.cls-1{font-size:288px;stroke-width:3px;}.cls-1,.cls-8{fill:none;stroke:#3f3d3a;stroke-miterlimit:10;}.cls-1,.cls-4{font-family:Morion-Regular, Morion;}.cls-2,.cls-4,.cls-5{fill:#3f3d3a;}.cls-3{letter-spacing:0em;}.cls-4{font-size:48px;}.cls-5{font-size:36px;font-family:QuestaSans-Regular, Questa Sans;}.cls-6{letter-spacing:-0.01em;}.cls-7{letter-spacing:-0.01em;}.cls-8{stroke-width:2px;stroke-dasharray:12 12;}</style></defs><text class="cls-1" transform="translate(287.88 251.34)">Ba<tspan class="cls-2" x="334.36" y="0">t</tspan><tspan class="cls-3" x="425.37" y="0">ik</tspan></text><text class="cls-4" transform="translate(131.32 499.62)">mbat</text><text class="cls-4" transform="translate(1032.43 499.9)">tik</text><text class="cls-5" transform="translate(0 572.37)"><tspan class="cls-6">M</tspan><tspan x="30.53" y="0">elemparkan berkali-kali</tspan></text><text class="cls-5" transform="translate(1025.04 572.14)">Titi<tspan class="cls-7" x="51.05" y="0">k</tspan></text><path class="cls-8" d="M538.57,230.45c-90.25,163.11-272.49,101.19-340.63,218.7"/><path class="cls-2" d="M531.75,227.19a7.52,7.52,0,1,1,3,10.19A7.53,7.53,0,0,1,531.75,227.19Z"/><path class="cls-8" d="M784.28,230.47c74.85,136.47,245.14,97.52,276.66,218.68"/><path class="cls-2" d="M777.81,234.32A7.52,7.52,0,1,1,788,237.45,7.53,7.53,0,0,1,777.81,234.32Z"/></svg>